# xmcd CD Database Entry
#
# Track frame offsets:
# 150
# 10962
# 23182
# 33997
# 44962
# 56362
# 71000
# 82912
# 95190
# 104202
# 113080
# 123365
# 132722
# 143232
# 157215
# 172452
# 186265
# 198367
# 210927
# 230715
# 243180
# 256015
# 265777
#
# Disc length: 3707 seconds
#
# Revision: 1
# Processed by: cddbd v1.4PL0 Copyright (c) Steve Scherf et al.
# Submitted via: tcd 2.0b
#
DISCID=5b0e7917
DTITLE=Flatt And Scruggs - Town and Country - Changin' Times
DYEAR=1900
DGENRE=
TTITLE0=Foggy Mountain Breakdown
TTITLE1=Ten Miles From Natchez
TTITLE2=Houston
TTITLE3=Memphis
TTITLE4=Kansas City
TTITLE5=The Last Public Hanging In West Virginia
TTITLE6=Jackson
TTITLE7=The Boys From Tennessee
TTITLE8=Nashville Blues
TTITLE9=Take Me Back To Tulsa
TTITLE10=Detroit City
TTITLE11=Seattle Town
TTITLE12=Down In The Flood
TTITLE13=Mr. Tambourine Man
TTITLE14=Don't Think Twice, It's Alright
TTITLE15=Where Have All The Flowers Gone
TTITLE16=Blowin' In The Wind
TTITLE17=It Ain't Me Babe
TTITLE18=Ode To Billie Joe
TTITLE19=Four Strong Winds
TTITLE20=Buddy, Don't Roll So Slow
TTITLE21=Foggy Mountain Breakdown
TTITLE22=This Land Is Your Land
EXTD=
EXTT0=
EXTT1=
EXTT2=
EXTT3=
EXTT4=
EXTT5=
EXTT6=
EXTT7=
EXTT8=
EXTT9=
EXTT10=
EXTT11=
EXTT12=
EXTT13=
EXTT14=
EXTT15=
EXTT16=
EXTT17=
EXTT18=
EXTT19=
EXTT20=
EXTT21=
EXTT22=
PLAYORDER=
